<svg width="50" height="50" viewBox="0 0 50 50" fill="none" xmlns="http://www.w3.org/2000/svg">
<g clip-path="url(#clip0_566_3)">
<mask id="mask0_566_3" style="mask-type:luminance" maskUnits="userSpaceOnUse" x="0" y="0" width="50" height="50">
<path d="M25 50C38.8071 50 50 38.8071 50 25C50 11.1929 38.8071 0 25 0C11.1929 0 0 11.1929 0 25C0 38.8071 11.1929 50 25 50Z" fill="white"/>
</mask>
<g mask="url(#mask0_566_3)">
<path d="M25 50C38.8071 50 50 38.8071 50 25C50 11.1929 38.8071 0 25 0C11.1929 0 0 11.1929 0 25C0 38.8071 11.1929 50 25 50Z" fill="black"/>
<path d="M41.5301 43.7555L19.2061 15H15V34.9916H18.3648V19.2734L38.8887 45.7902C39.8134 45.1715 40.6959 44.4917 41.5301 43.7555Z" fill="url(#paint0_linear_566_3)"/>
<path d="M31.9446 15H35.278V35H31.9446V15Z" fill="url(#paint1_linear_566_3)"/>
</g>
</g>
<defs>
<linearGradient id="paint0_linear_566_3" x1="1490.95" y1="1751.11" x2="2376.89" y2="2849.2" gradientUnits="userSpaceOnUse">
<stop stop-color="white"/>
<stop offset="1" stop-color="white" stop-opacity="0"/>
</linearGradient>
<linearGradient id="paint1_linear_566_3" x1="198.615" y1="15" x2="192.975" y2="1483.74" gradientUnits="userSpaceOnUse">
<stop stop-color="white"/>
<stop offset="1" stop-color="white" stop-opacity="0"/>
</linearGradient>
<clipPath id="clip0_566_3">
<rect width="50" height="50" fill="white"/>
</clipPath>
</defs>
</svg>
