<svg width="50" height="50" viewBox="0 0 50 50" fill="none" xmlns="http://www.w3.org/2000/svg">
<g clip-path="url(#clip0_119_314)">
<path d="M7.6063 7.00763C17.4852 -2.56248 33.2809 -2.30526 42.851 7.62501C43.9315 6.18439 44.8577 4.58947 45.5266 2.94298C48.6653 12.5131 50.569 20.5397 49.8485 26.7652C49.4883 32.0133 47.4303 37.0557 44.0344 41.069C35.1848 51.5652 19.4403 52.9029 8.944 44.0533L8.74322 43.8746L8.73248 43.8676C8.69966 43.8447 8.66724 43.8208 8.63521 43.7959C8.53951 43.7213 8.45253 43.6406 8.37427 43.5537L8.34615 43.5217L8.01802 43.2301C7.69771 42.9557 7.37759 42.6813 7.09361 42.3707L6.98892 42.2524C-2.58139 32.3735 -2.27241 16.5777 7.6063 7.00763ZM11.3106 40.5031C10.3844 39.7828 9.04673 39.8856 8.32623 40.8117C7.69302 41.6262 7.69615 42.7588 8.3358 43.51L8.34615 43.5217L8.74322 43.8746L8.78209 43.9012C9.6813 44.4926 10.8915 44.3703 11.5815 43.5344L11.6194 43.4873C12.3397 42.5611 12.1854 41.2234 11.3108 40.5029M45.2696 5.51544C42.6967 10.918 36.3165 15.0342 30.8112 16.3205C25.6145 17.5553 21.0866 16.5264 16.3016 18.3785C5.3938 22.5463 5.59966 35.5121 11.568 38.4449L11.9282 38.6508C11.9282 38.6508 16.2395 37.7936 20.5028 36.6615L20.868 36.5639C22.5708 36.1049 24.2459 35.6049 25.6145 35.1006C32.7149 32.4766 40.5358 25.9936 43.1083 18.4815C41.7706 26.3022 35.0303 33.8656 28.2899 37.3131C24.6883 39.1652 21.91 39.5768 15.993 41.635C15.2727 41.8922 14.7067 42.1496 14.7067 42.1496L14.9231 42.1203L15.0669 42.1018L15.21 42.0838C16.5167 41.9217 17.6909 41.8408 17.6909 41.8408C26.0776 41.4291 39.2495 44.2076 45.3723 36.0268C51.6495 27.6914 48.1508 14.211 45.2696 5.51544Z" fill="#6DB33F"/>
<path d="M11.3106 40.5033C12.1854 41.2236 12.3397 42.5613 11.6192 43.4875C10.8991 44.4137 9.56121 44.5166 8.63503 43.7961C7.70886 43.0756 7.60613 41.7381 8.32644 40.8119C9.04675 39.8857 10.3843 39.783 11.3106 40.5033ZM45.2694 5.51562C48.1507 14.2111 51.6495 27.6916 45.3723 36.027C39.2493 44.2078 26.0776 41.4293 17.6909 41.841C17.6909 41.841 16.5167 41.9221 15.21 42.084L15.0669 42.102C14.9472 42.1172 14.8272 42.1331 14.7067 42.1498C14.7067 42.1498 15.2727 41.8924 15.993 41.6352C21.91 39.5771 24.6884 39.1654 28.2899 37.3133C35.0303 33.866 41.7706 26.3023 43.1083 18.4816C40.5358 25.9938 32.7149 32.4768 25.6145 35.1008C20.7266 36.9016 11.9282 38.651 11.9282 38.651L11.568 38.4451C5.59968 35.5123 5.39382 22.5465 16.3016 18.3787C21.0868 16.5266 25.6145 17.5555 30.8114 16.3207C36.3167 15.0344 42.6968 10.9184 45.2694 5.51562Z" fill="white"/>
</g>
<defs>
<clipPath id="clip0_119_314">
<rect width="50" height="50" fill="white"/>
</clipPath>
</defs>
</svg>
